<?xml version="1.0" encoding="utf-8"?>
<!-- Generator: Adobe Illustrator 21.0.0, SVG Export Plug-In . SVG Version: 6.00 Build 0)  -->
<svg version="1.1" id="Logo" xmlns="http://www.w3.org/2000/svg" xmlns:xlink="http://www.w3.org/1999/xlink" x="0px" y="0px"
	 viewBox="0 0 512 512" style="enable-background:new 0 0 512 512;" xml:space="preserve">
<style type="text/css">
	.st0{fill-rule:evenodd;clip-rule:evenodd;fill:#FFFFFF;}
</style>
<path class="st0" d="M256,10.9C117.2,10.9,4.7,123.4,4.7,262.2c0,111,72,205.2,171.8,238.4c12.6,2.3,17.1-5.5,17.1-12.1
	c0-6-0.2-21.8-0.3-42.7c-69.9,15.2-84.6-33.7-84.6-33.7c-11.4-29-27.9-36.8-27.9-36.8c-22.8-15.6,1.7-15.3,1.7-15.3
	c25.2,1.8,38.5,25.9,38.5,25.9c22.4,38.4,58.8,27.3,73.1,20.9c2.3-16.2,8.8-27.3,16-33.6c-55.8-6.3-114.5-27.9-114.5-124.2
	c0-27.4,9.8-49.9,25.9-67.4c-2.6-6.4-11.2-31.9,2.5-66.5c0,0,21.1-6.8,69.1,25.8c20-5.6,41.5-8.4,62.9-8.5
	c21.3,0.1,42.8,2.9,62.9,8.5c48-32.5,69-25.8,69-25.8c13.7,34.6,5.1,60.1,2.5,66.5c16.1,17.6,25.8,40,25.8,67.4
	c0,96.5-58.7,117.8-114.7,124c9,7.8,17.1,23.1,17.1,46.5c0,33.6-0.3,60.7-0.3,68.9c0,6.7,4.5,14.5,17.3,12.1
	c99.8-33.3,171.7-127.4,171.7-238.4C507.3,123.4,394.8,10.9,256,10.9z"/>
</svg>
