<?xml version="1.0" encoding="utf-8"?>
<!-- Generator: Adobe Illustrator 21.0.0, SVG Export Plug-In . SVG Version: 6.00 Build 0)  -->
<svg version="1.1" id="Layer_1" xmlns="http://www.w3.org/2000/svg" xmlns:xlink="http://www.w3.org/1999/xlink" x="0px" y="0px"
	 viewBox="0 0 100 98.1" style="enable-background:new 0 0 100 98.1;" xml:space="preserve">
<style type="text/css">
	.st0{fill:#010101;}
</style>
<g>
	<path class="st0" d="M24.2,92.1c2.3,1.1,5,0.1,6.1-2.2l9.9-21.1c0,0,0-0.1,0.1-0.1c1.1-2.5-0.1-5.4-2.6-6.5
		c-2.5-1.1-5.4,0.1-6.5,2.6L22,86.2C21,88.4,22,91.1,24.2,92.1z"/>
	<path class="st0" d="M26.9,52.2l0.9,0c1.6,0,3.4-1.3,3.8-2.9L39.1,23c0.5-1.6-0.3-3.7-1.6-4.7l-6-4.4c-1.3-1-3.2-0.7-4.1,0.7
		l-3.2,4.8c-0.9,1.4-1.6,3.9-1.5,5.5l1,24.3C23.8,50.8,25.2,52.2,26.9,52.2z"/>
	<path class="st0" d="M98.1,85.9c-1.2-0.1-2.2,0.8-2.3,1.9c-0.5,5.3-2.8,6-5.1,6H80.4c0.8-1.4,1.4-3.2,1.6-5.6
		c0.1-1.2-0.8-2.2-1.9-2.3c-1.1-0.1-2.2,0.8-2.3,1.9c-0.5,5.3-2.8,6-5.1,6H2.1C1,93.8,0,94.8,0,96c0,1.2,1,2.1,2.1,2.1h88.5
		c3.9,0,8.6-1.7,9.4-9.9C100.1,87.1,99.2,86,98.1,85.9z"/>
	<path class="st0" d="M53.3,18.1c4.9,0.3,9.2-3.7,9.3-8.8c0.1-5.1-3.8-9.3-8.8-9.4c-4.9-0.1-9.1,4.2-9.1,9.1
		C44.8,13.9,48.6,17.9,53.3,18.1z"/>
	<path class="st0" d="M35.2,51.8c-0.3,2.1,0.4,4.4,2.3,5.9l16,12.7V88c0,2.7,2.2,5,5,5c2.7,0,5-2.2,5-5V68c0-1.3-0.5-2.5-1.4-3.5
		l-0.2-0.2L49.2,51.9L53.6,35l24.5,10.2l-9.6,45.2c-0.2,1.1,0.5,2.3,1.6,2.5c0.1,0,0.3,0,0.4,0c1,0,1.9-0.7,2.1-1.7l9.6-45.1
		c1-0.2,1.9-0.8,2.4-1.8c1-1.8,0.3-4-1.5-5L50.4,21.4c-0.2-0.1-0.4-0.2-0.5-0.3c-2.7-1.1-5.9,0-7.2,2.6c-0.7,0.8-1.3,1.8-1.6,2.9
		L35.3,49C35.1,50,35,50.9,35.2,51.8z"/>
</g>
</svg>
