<?xml version="1.0" encoding="utf-8"?>
<!-- Generator: Adobe Illustrator 21.0.0, SVG Export Plug-In . SVG Version: 6.00 Build 0)  -->
<svg version="1.1" id="Layer_1" xmlns="http://www.w3.org/2000/svg" xmlns:xlink="http://www.w3.org/1999/xlink" x="0px" y="0px"
	 viewBox="0 0 140 113.8" style="enable-background:new 0 0 140 113.8;" xml:space="preserve">
<style type="text/css">
	.st0{fill:#010101;}
</style>
<path class="st0" d="M133.9,57.3h-24l-9.8-19.2c-0.2-0.4-0.5-0.8-0.8-1.2L69.4,2.1c-1.8-2.1-4.7-2.7-7.2-1.6L36.1,12.8
	c-3.1,1.4-4.4,5.1-2.9,8.1c1.4,3.1,5.1,4.4,8.1,2.9l21.9-10.2l9,10.5l-25,24.8c-1.3,0.5-2.5,1.3-3.5,2.4c-0.5,0.5-0.9,1.1-1.2,1.6
	c-1,0.9-1.8,2-2.3,3.4l-9.3,22.6L2,103.7c-2.2,1.9-2.7,5.2-1,7.6c1.8,2.6,5.4,3.3,8,1.5l33.2-22.9c0.7-0.5,1.3-1.1,1.7-1.8l0.5-0.9
	L52.8,73l14.3,13.1l-19,17.7c-2.1,2-2.5,5.2-0.7,7.6c1.9,2.6,5.5,3.2,8,1.3l28.3-20.5c0.2-0.2,0.4-0.3,0.6-0.5
	c3.1-2.8,3.3-7.5,0.6-10.5l-0.6-0.6L66.9,61.2l22.5-17.1l0.1,0.2l11.2,21.9c1,2,3.1,3.3,5.4,3.3h27.7c3.4,0,6.1-2.7,6.1-6.1
	C140,60,137.2,57.3,133.9,57.3z"/>
<path class="st0" d="M96.4,30c4.1,5.4,11.8,6.5,17.2,2.4c5.4-4.1,6.5-11.8,2.4-17.2c-4.1-5.4-11.8-6.5-17.2-2.4
	C93.4,16.9,92.3,24.6,96.4,30z"/>
</svg>
