<?xml version="1.0" encoding="utf-8"?>
<!-- Generator: Adobe Illustrator 21.0.0, SVG Export Plug-In . SVG Version: 6.00 Build 0)  -->
<svg version="1.1" id="Layer_1" xmlns="http://www.w3.org/2000/svg" xmlns:xlink="http://www.w3.org/1999/xlink" x="0px" y="0px"
	 viewBox="0 0 110.2 96.3" style="enable-background:new 0 0 110.2 96.3;" xml:space="preserve">
<style type="text/css">
	.st0{fill:#010101;}
</style>
<g>
	<path class="st0" d="M49.1,31.6h11.8c7,0,25.7,19.6,30,23.5l14.8,2.6c3,0.5,5,3.4,4.5,6.4l-0.1,0.5c-0.5,3-3.4,5-6.4,4.5l-16.6-2.9
		c-1.4-0.3-2.6-1-3.4-2.1c-0.1-0.1-0.3-0.2-0.4-0.3L71,52.9v19.5l22.8-3.8c4.6-0.8,8.9,2.3,9.7,6.9l0.2,0.9c0.8,4.6-2.3,8.9-6.9,9.7
		L83,88.3c0,0.1,0,0.1,0,0.1l-0.2,0.9c-0.8,4.6-5.1,7.7-9.7,6.9l-18.7-3.1l-18.7,3.1c-4.6,0.8-8.9-2.3-9.7-6.9l-0.2-0.9
		c0-0.1,0-0.1,0-0.1L12,86c-4.6-0.8-7.7-5.1-6.9-9.7l0.2-0.9c0.8-4.6,5.1-7.7,9.7-6.9l24,4V53.1L27,63.9c-0.1,0.1-0.3,0.2-0.4,0.3
		c-0.8,1-2,1.8-3.4,2.1L6.6,69.3c-3,0.5-5.9-1.5-6.4-4.5l-0.1-0.5c-0.5-3,1.5-5.9,4.5-6.4l14.8-2.6C23.5,51.5,42.2,31.7,49.1,31.6
		L49.1,31.6z M54.6,0C62.5,0,69,6.4,69,14.4s-6.4,14.4-14.4,14.4s-14.4-6.4-14.4-14.4S46.6,0,54.6,0z"/>
</g>
</svg>
