<?xml version="1.0" encoding="utf-8"?>
<!-- Generator: Adobe Illustrator 21.0.0, SVG Export Plug-In . SVG Version: 6.00 Build 0)  -->
<svg version="1.1" id="Layer_1" xmlns="http://www.w3.org/2000/svg" xmlns:xlink="http://www.w3.org/1999/xlink" x="0px" y="0px"
	 viewBox="0 0 145.5 108.2" style="enable-background:new 0 0 145.5 108.2;" xml:space="preserve">
<style type="text/css">
	.st0{fill:#010101;}
</style>
<g>
	<path class="st0" d="M92.6,54.9l-0.9-0.5L67.5,40.6c1.2-0.7,2.4-1.3,3.7-1.9c4.4-2.2,9-3.8,12.2-4.6c0.8-0.2,1.5-0.3,2.1-0.5
		c0.5-0.1,0.8-0.1,1.2-0.2c1.2-0.1,1.9-0.2,1.9-0.2l0.1,0c0.3,0,0.6-0.1,0.9-0.1c0.5-0.1,0.9-0.2,1.3-0.3l2.6,12.7
		c0.5,2.3,2.4,4,4.7,4.3l25.8,2.9c0.2,0,0.4,0,0.6,0c2.7,0,5-2,5.4-4.8c0.3-3-1.8-5.6-4.8-6l-21.9-2.5l-3.7-18.2
		c2.6,0.6,5.4,0.3,7.8-1.1c5.2-3,7-9.6,4.1-14.8c-2.9-5.2-9.6-7-14.8-4.1c-3.3,1.9-5.2,5.3-5.5,8.8c-1.8-0.6-3.9-0.8-5.9-0.4
		c0,0-0.7,0.1-1.9,0.3c-0.9,0.2-2,0.4-3.2,0.7c-1,0.3-2.2,0.6-3.4,1c-4.9,1.6-10.7,4.3-16.1,7.5c-2.7,1.6-5.4,3.3-7.9,5.2l-0.9,0.7
		l-0.6,0.5L51,25.9l-0.3,0.3c-0.4,0.4-0.8,0.8-1.2,1.2l-0.8,0.8L48,29.1c-1.5,1.9-2.6,4.2-3.3,6.4c-1.4,4.5-0.7,9.3,1.2,12.6
		c0.9,1.7,2.1,2.9,2.9,3.7c0.9,0.8,1.4,1.1,1.4,1.1c0.1,0,0.2,0.1,0.2,0.1c1,1,2.2,1.8,3.6,2.3l26.6,9.2l-9.3,28.1
		c-0.7,2.1,0.3,4.5,2.4,5.4c2.2,1,4.9,0.1,5.9-2.2l15.4-33C96.4,59.9,95.3,56.4,92.6,54.9z"/>
	<path class="st0" d="M145,76.9c-2.4-12.3-13.2-21.2-25.7-21.2c-1.7,0-3.4,0.2-5.1,0.5c-6.9,1.4-12.8,5.3-16.7,11.1
		c-3.9,5.8-5.3,12.8-3.9,19.7c2.4,12.3,13.2,21.2,25.7,21.2c1.7,0,3.4-0.2,5.1-0.5c6.9-1.4,12.8-5.3,16.7-11.1
		C145,90.8,146.4,83.8,145,76.9z M135.7,93c-2.9,4.4-7.4,7.4-12.6,8.4c-1.3,0.3-2.6,0.4-3.9,0.4c-9.4,0-17.5-6.7-19.4-15.9
		c-1-5.2,0-10.5,3-14.8c2.9-4.4,7.4-7.4,12.6-8.4c1.3-0.3,2.6-0.4,3.9-0.4c9.4,0,17.5,6.7,19.4,15.9C139.7,83.3,138.6,88.6,135.7,93
		z"/>
	<path class="st0" d="M52,76.9c-2.4-12.3-13.2-21.2-25.7-21.2c-1.7,0-3.4,0.2-5.1,0.5c-6.9,1.4-12.8,5.3-16.7,11.1
		c-3.9,5.8-5.3,12.8-3.9,19.7c2.4,12.3,13.2,21.2,25.7,21.2c1.7,0,3.4-0.2,5.1-0.5c6.9-1.4,12.8-5.3,16.7-11.1
		C52,90.8,53.4,83.8,52,76.9z M42.7,93c-2.9,4.4-7.4,7.4-12.6,8.4c-1.3,0.3-2.6,0.4-3.9,0.4c-9.4,0-17.5-6.7-19.4-15.9
		c-1-5.2,0-10.5,3-14.8c2.9-4.4,7.4-7.4,12.6-8.4c1.3-0.3,2.6-0.4,3.9-0.4c9.4,0,17.5,6.7,19.4,15.9C46.7,83.3,45.6,88.6,42.7,93z"
		/>
</g>
</svg>
