<?xml version="1.0" encoding="utf-8"?>
<!-- Generator: Adobe Illustrator 21.0.0, SVG Export Plug-In . SVG Version: 6.00 Build 0)  -->
<svg version="1.1" id="Layer_1" xmlns="http://www.w3.org/2000/svg" xmlns:xlink="http://www.w3.org/1999/xlink" x="0px" y="0px"
	 viewBox="0 0 107.2 207.2" style="enable-background:new 0 0 107.2 207.2;" xml:space="preserve">
<style type="text/css">
	.st0{fill:#010101;}
</style>
<g>
	<path class="st0" d="M64.5,44c6.8,6.2,17.1,7.7,25.6,3.1c11-5.9,15.1-19.5,9.2-30.4C93.6,5.8,79.9,1.6,69,7.5
		c-2.9,1.5-5.3,3.6-7.2,6.1c1.7,2.7,3,5.8,3.8,9C67.6,29.9,67.1,37.4,64.5,44z"/>
	<path class="st0" d="M37.1,92.1c-1.2,0-2.3-0.2-3.4-0.5c-0.3,4.9-1.9,10.6-5.7,18.1c-4.1,12.6,0.6,18.3,7.3,21.4
		c0.9,0.8,1.9,1.5,3.1,2.1l35.8,17.4l-22.6,35.9c-4,6.3-2.1,14.6,4.2,18.6c2.2,1.4,4.7,2.1,7.2,2.1c4.5,0,8.9-2.2,11.4-6.3
		l30.7-48.7c2.1-3.3,2.6-7.2,1.6-10.9c-1.1-3.7-3.6-6.7-7.1-8.4l-32.7-15.9c5.3-21.1,5.4-34.2,0.7-54.6c-1.2-5-3.4-8.9-6.1-12
		c-0.6,1-1.3,2-2,2.9c0.1,0.1,0.2,0.1,0.4,0.2c5,3.5,6.1,10.4,2.6,15.4c-0.8,1.1-3.6,5-6.9,9.2c-2.3,2.9-4.3,5.2-6,7.1
		c-1.3,1.3-2.3,2.3-3.4,3.2l-0.3,0.3c-1.2,0.9-2.5,1.9-5.1,2.9C39.4,91.9,38.3,92.1,37.1,92.1z"/>
	<path class="st0" d="M28,72.8c-0.2,0.8-0.4,1.5-0.6,2.2c-0.1,0.5-0.2,1.1-0.3,1.6c-0.2,0.9-0.3,1.9-0.3,3c0,1.1,0.1,2.3,0.7,4
		c0.6,1.6,2,4,4.5,5.3c0.6,0.3,1.2,0.6,1.8,0.7c1,0.3,2,0.5,2.8,0.5c0,0,0.1,0,0.1,0c1.3,0,2.3-0.2,3.2-0.5v0
		c0.3-0.1,0.6-0.2,0.9-0.3c1.9-0.8,2.9-1.6,4-2.5c1.1-0.9,2.2-1.9,3.2-3c2-2.1,4.1-4.6,5.9-6.9c3.7-4.7,6.8-9.1,6.9-9.2v0
		c2.9-4.1,1.9-9.7-2.2-12.5c-0.2-0.1-0.3-0.2-0.5-0.3c-0.8,0.9-1.7,1.8-2.6,2.6C53,63,51,67.7,49.5,71.6c-0.3,0.8-1.8,2.6-3.8,4.7
		c0.5-1.4,1.1-3.2,2-5.4c1.1-2.9,2.6-6.4,4.4-10.6c-3.3,2.4-7.2,4.2-11.3,5.4c-0.4,0.1-0.8,0.2-1.2,0.3c-1,0.2-2,0.4-3,0.6
		c-2.2,0.3-4.4,0.4-6.6,0.3c-0.4,1-0.7,2-1,2.9C28.6,70.8,28.2,71.9,28,72.8z"/>
	<path class="st0" d="M29.2,63.2c0.7,0.1,1.4,0.1,2.1,0.1c2.8,0,5.7-0.3,8.5-1.1c0,0,0.1,0,0.1,0c1.1-0.3,2.3-0.7,3.3-1.1
		c4.3-1.7,8.1-4.3,11.2-7.5c0.4-0.4,0.8-0.9,1.2-1.4c0.1-0.1,0.2-0.3,0.3-0.4c1-1.3,2-2.6,2.8-4c1.3-2.1,2.3-4.3,3-6.7
		c0.3-0.9,0.5-1.8,0.7-2.8c1-4.8,1-9.9-0.4-14.9c-0.6-2.3-1.5-4.5-2.6-6.6C52.9,4.1,38-2.8,23.5,1.1C6.6,5.6-3.4,23,1.1,39.8
		c3.5,12.9,14.4,21.8,26.9,23.2C28.4,63.1,28.8,63.2,29.2,63.2z M44.2,31.6c0,1.5-0.2,2.9-0.7,4.3c-0.3,0.8-0.6,1.5-1,2.2
		c-1,1.7-2.5,3.2-4.2,4.3c-1,0.6-2.1,1.1-3.3,1.4c-6.7,1.8-13.6-2.2-15.4-8.9c-1.8-6.7,2.2-13.6,8.9-15.4c6.7-1.8,13.6,2.2,15.4,8.9
		C44.1,29.5,44.2,30.5,44.2,31.6z"/>
	<ellipse transform="matrix(0.9659 -0.2588 0.2588 0.9659 -7.1133 9.2712)" class="st0" cx="31.7" cy="31.7" rx="8.7" ry="8.7"/>
</g>
</svg>
