<?xml version="1.0" encoding="utf-8"?>
<!-- Generator: Adobe Illustrator 21.0.0, SVG Export Plug-In . SVG Version: 6.00 Build 0)  -->
<svg version="1.1" id="Layer_1" xmlns="http://www.w3.org/2000/svg" xmlns:xlink="http://www.w3.org/1999/xlink" x="0px" y="0px"
	 viewBox="0 0 106.7 47.6" style="enable-background:new 0 0 106.7 47.6;" xml:space="preserve">
<style type="text/css">
	.st0{fill:#010101;}
</style>
<path class="st0" d="M17.8,47.6c4.5,0,6.7-1.4,9.1-2.9c2.2-1.4,4.4-2.8,8.7-2.8s6.5,1.3,8.7,2.8c2.3,1.5,4.5,2.8,9.1,2.8
	c4.5,0,6.7-1.4,9.1-2.9c2.2-1.4,4.4-2.8,8.7-2.8c4.3,0,6.5,1.3,8.7,2.8c2.2,1.4,4.5,2.9,9.1,2.9c4.5,0,6.7-1.4,9.1-2.9
	c2.2-1.4,4.4-2.8,8.7-2.8v-5.6c-4.2,0-7,1-9.1,2.1l-20.6-3.7c4.8-1.9,7.1-7.3,5.2-12c-1.9-4.7-7.3-7.1-12-5.2
	c-2.7,1.1-4.6,3.4-5.4,6l-5.7-9c-0.3-0.5-0.7-0.8-1.1-1.2L40.6,0.8c-1-0.7-2.3-1-3.5-0.7L13.8,5.6c-2.3,0.5-3.7,2.8-3.2,5.2
	c0.5,2.3,2.9,3.7,5.2,3.2l21.4-5l15,10.9l0.3,0.4L30,37.1c-2.7,0.7-4.5,1.9-6.1,2.9c-2,1.3-3.2,2-6.1,2c-2.9,0-4.1-0.7-6.1-2
	C9.1,38.4,6,36.4,0,36.4v5.6c4.4,0,6.5,1.3,8.7,2.8C11,46.2,13.2,47.6,17.8,47.6z"/>
</svg>
