<?xml version="1.0" encoding="utf-8"?>
<!-- Generator: Adobe Illustrator 21.0.0, SVG Export Plug-In . SVG Version: 6.00 Build 0)  -->
<svg version="1.1" id="Layer_1" xmlns="http://www.w3.org/2000/svg" xmlns:xlink="http://www.w3.org/1999/xlink" x="0px" y="0px"
	 viewBox="0 0 88.2 88.2" style="enable-background:new 0 0 88.2 88.2;" xml:space="preserve">
<style type="text/css">
	.st0{fill:#010101;}
</style>
<path class="st0" d="M86.3,31.4c-0.2-0.6-0.4-1.3-0.6-1.9c-1.6-4.5-3.8-8.6-6.7-12.3C73.9,10.6,66.9,5.4,58.9,2.6
	C54.6,1,49.9,0.1,45.1,0c-0.3,0-0.7,0-1,0s-0.7,0-1,0c-4.8,0.1-9.5,1-13.8,2.5c-8,2.9-15,8-20.1,14.7C6.3,20.9,4.1,25,2.5,29.5
	c-0.2,0.6-0.4,1.3-0.6,1.9C0.7,35.5,0,39.7,0,44.1c0,0.5,0,0.9,0,1.4c0.3,8.7,3,16.7,7.6,23.5c2.7,3.9,6,7.4,9.7,10.2
	c0.5,0.4,1.1,0.8,1.6,1.2c3.8,2.7,8.1,4.7,12.7,6.1c3.9,1.1,8.1,1.8,12.3,1.8c4.2,0,8.3-0.6,12.1-1.7c4.7-1.3,9-3.4,12.9-6.1
	c0.6-0.4,1.1-0.8,1.6-1.2c3.7-2.8,6.9-6.2,9.5-10c4.7-6.8,7.6-14.9,7.8-23.7c0-0.5,0-0.9,0-1.4C88.2,39.7,87.6,35.5,86.3,31.4z
	 M58.4,4.5c7.6,2.8,14.1,7.6,19,13.9l-5,15.4l-14.1,4.6l-13.2-9.6V14.2L58.4,4.5z M29.8,4.5l13.3,9.7v14.6l-13.2,9.6l-14.1-4.6
	l-5-15.4C15.6,12.2,22.2,7.3,29.8,4.5z M9.4,67.9C5,61.5,2.3,53.7,2.1,45.4l13.2-9.6l14,4.5l5,15.5l-8.8,12.1H9.4z M55.7,84.6
	c-3.7,1.1-7.6,1.6-11.6,1.6c-4.1,0-8.1-0.6-11.9-1.7l-5-15.4L36,57h16.3l8.6,11.8L55.7,84.6z M78.8,67.9H62.7l-8.8-12.1l5-15.5
	l14-4.5l13.2,9.6C85.9,53.7,83.2,61.5,78.8,67.9z"/>
</svg>
