<?xml version="1.0" encoding="utf-8"?>
<!-- Generator: Adobe Illustrator 21.0.0, SVG Export Plug-In . SVG Version: 6.00 Build 0)  -->
<svg version="1.1" id="Layer_1" xmlns="http://www.w3.org/2000/svg" xmlns:xlink="http://www.w3.org/1999/xlink" x="0px" y="0px"
	 viewBox="0 0 88.2 88.2" style="enable-background:new 0 0 88.2 88.2;" xml:space="preserve">
<style type="text/css">
	.st0{fill:#010101;}
</style>
<path class="st0" d="M75.7,48.8c0.6,5-4.1,41.4,7.8,30.4c4.6-6.4,1.3-40.9-3.8-50.2c-7.6-13.8-23.4-7.7-30.7-1.7
	c-2.9,2.4-5.7,2.4-6.4,0.8c-1.5-13.4-12.1-11.5-12.5-13.6c-1.1-5.3-8.2-8.3-8.5-7.3c-1,3.2-1,3.2-0.7,9c-5.9,4.4-7.1,7.7-7.6,7.8
	c-1.8,0.2-8.2-0.2-9,1.1c-0.7,1.1,2.3,8.1,6.8,9.2c2.2,0.5,1.3,5.3,6.3,6.7c2.9,0.8-7.7-2-13.1,2.9c-5.5,4.9,3.2,7.7,7,4.3
	c5.8-1.6,5,2.2,19.3-0.4C27,50.5,30,60.4,32,62.9c2.7,3.1,8.2,1.9,7.7-2.4c-0.3-3.1-4.1-3.3-1.9-6.9l3.8-4.5c0,0,11.4,0.7,14.8-1
	C55.5,56.7,75.7,48.8,75.7,48.8z"/>
</svg>
